<?xml version="1.0"?>

<svg xmlns="http://www.w3.org/2000/svg" xmlns:xlink="http://www.w3.org/1999/xlink" version="1.1" id="Layer_1" x="0px" y="0px" viewBox="0 0 600 369.41" style="enable-background:new 0 0 600 369.41;" xml:space="preserve">

<g>
&#x9;<path class="st0" d="M376.21,170.11h-9.31v15.76h-9.1v-43.83h19.09c4.4,0,7.91,1.13,10.53,3.39c2.62,2.26,3.92,5.76,3.92,10.5   c0,5.17-1.31,8.83-3.92,10.97C384.81,169.04,381.07,170.11,376.21,170.11z M380.5,160.98c1.19-1.05,1.78-2.72,1.78-5   c0-2.28-0.6-3.9-1.8-4.88c-1.2-0.97-2.88-1.46-5.04-1.46h-8.53v12.9h8.53C377.6,162.56,379.29,162.03,380.5,160.98z"></path>
&#x9;<path class="st0" d="M398.75,156.97c2.24-2.85,6.08-4.28,11.54-4.28c3.55,0,6.7,0.7,9.46,2.11c2.76,1.41,4.13,4.06,4.13,7.97v14.87   c0,1.03,0.02,2.28,0.06,3.75c0.06,1.11,0.23,1.86,0.5,2.26s0.69,0.72,1.25,0.98v1.25h-9.22c-0.26-0.65-0.44-1.27-0.54-1.84   c-0.1-0.57-0.18-1.23-0.24-1.96c-1.17,1.27-2.52,2.35-4.04,3.24c-1.82,1.05-3.88,1.58-6.18,1.58c-2.93,0-5.36-0.84-7.27-2.51   c-1.91-1.67-2.87-4.05-2.87-7.12c0-3.98,1.54-6.87,4.61-8.65c1.68-0.97,4.16-1.67,7.43-2.08l2.88-0.36   c1.57-0.2,2.69-0.45,3.36-0.74c1.21-0.52,1.81-1.32,1.81-2.41c0-1.33-0.46-2.25-1.38-2.75c-0.92-0.51-2.28-0.76-4.06-0.76   c-2,0-3.42,0.5-4.25,1.49c-0.59,0.73-0.99,1.72-1.19,2.97h-8.18C396.55,161.12,397.34,158.79,398.75,156.97z M405.06,179.74   c0.79,0.65,1.76,0.98,2.91,0.98c1.82,0,3.5-0.54,5.04-1.61c1.54-1.07,2.33-3.02,2.39-5.86v-3.15c-0.54,0.34-1.08,0.61-1.62,0.82   c-0.54,0.21-1.29,0.4-2.24,0.58l-1.9,0.36c-1.78,0.32-3.06,0.7-3.84,1.16c-1.31,0.77-1.96,1.97-1.96,3.6   C403.84,178.07,404.24,179.11,405.06,179.74z"></path>
&#x9;<path class="st0" d="M446.24,179.83v6.33l-4.01,0.15c-4,0.14-6.74-0.55-8.21-2.08c-0.95-0.97-1.43-2.47-1.43-4.49v-19.95h-4.52   v-6.04h4.52v-9.04h8.38v9.04h5.26v6.04h-5.26v17.13c0,1.33,0.17,2.16,0.51,2.48c0.34,0.33,1.37,0.49,3.09,0.49   c0.26,0,0.53,0,0.82-0.02C445.68,179.87,445.96,179.85,446.24,179.83z"></path>
&#x9;<path class="st0" d="M467.97,161.28c-3.41,0-5.7,1.11-6.87,3.33c-0.65,1.25-0.98,3.17-0.98,5.77v15.49h-8.53v-32.41h8.09v5.65   c1.31-2.16,2.45-3.64,3.42-4.43c1.58-1.33,3.65-1.99,6.18-1.99c0.16,0,0.29,0,0.4,0.01c0.11,0.01,0.35,0.03,0.73,0.04v8.68   c-0.54-0.06-1.01-0.1-1.43-0.12C468.57,161.29,468.23,161.28,467.97,161.28z"></path>
&#x9;<path class="st0" d="M484.09,141.77v7.82h-8.59v-7.82H484.09z M484.09,153.46v32.41h-8.59v-32.41H484.09z"></path>
&#x9;<path class="st0" d="M520.34,165.08h-8.68c-0.16-1.21-0.56-2.3-1.22-3.27c-0.95-1.31-2.43-1.96-4.43-1.96   c-2.85,0-4.81,1.42-5.86,4.25c-0.56,1.51-0.83,3.51-0.83,6.01c0,2.38,0.28,4.29,0.83,5.74c1.01,2.7,2.91,4.04,5.71,4.04   c1.98,0,3.39-0.54,4.22-1.61c0.83-1.07,1.34-2.46,1.52-4.16h8.65c-0.2,2.58-1.13,5.02-2.79,7.31c-2.66,3.71-6.59,5.56-11.8,5.56   c-5.21,0-9.05-1.55-11.51-4.64s-3.69-7.11-3.69-12.04c0-5.57,1.36-9.9,4.07-12.99c2.72-3.09,6.46-4.64,11.24-4.64   c4.06,0,7.39,0.91,9.98,2.74C518.33,157.24,519.86,160.46,520.34,165.08z"></path>
&#x9;<path class="st0" d="M534.88,141.77v7.82h-8.59v-7.82H534.88z M534.88,153.46v32.41h-8.59v-32.41H534.88z"></path>
&#x9;<path class="st0" d="M570.11,157.56c2.74,3.43,4.1,7.48,4.1,12.16c0,4.76-1.37,8.83-4.1,12.21c-2.74,3.38-6.89,5.07-12.46,5.07   s-9.72-1.69-12.46-5.07c-2.74-3.38-4.1-7.45-4.1-12.21c0-4.68,1.37-8.73,4.1-12.16c2.74-3.43,6.89-5.14,12.46-5.14   S567.38,154.13,570.11,157.56z M557.62,159.58c-2.48,0-4.39,0.88-5.72,2.63c-1.34,1.75-2.01,4.26-2.01,7.51   c0,3.25,0.67,5.76,2.01,7.52c1.34,1.76,3.25,2.65,5.72,2.65c2.48,0,4.38-0.88,5.71-2.65c1.33-1.76,1.99-4.27,1.99-7.52   c0-3.25-0.67-5.75-1.99-7.51C562,160.46,560.1,159.58,557.62,159.58z"></path>
&#x9;<path class="st0" d="M376.21,215.41h-9.46v17.19h-8.95v-43.83h21.5c3.07,0.06,5.44,0.44,7.09,1.13c1.66,0.69,3.06,1.71,4.21,3.06   c0.95,1.11,1.71,2.34,2.26,3.69c0.55,1.35,0.83,2.88,0.83,4.61c0,2.08-0.53,4.13-1.58,6.14c-1.05,2.01-2.79,3.43-5.2,4.27   c2.02,0.81,3.45,1.97,4.3,3.46c0.84,1.5,1.26,3.78,1.26,6.85v2.94c0,2,0.08,3.36,0.24,4.07c0.24,1.13,0.79,1.96,1.67,2.5v1.1H384.3   c-0.28-0.97-0.48-1.75-0.59-2.35c-0.24-1.23-0.37-2.49-0.39-3.78l-0.06-4.07c-0.04-2.8-0.55-4.66-1.53-5.59   C380.75,215.88,378.91,215.41,376.21,215.41z M381.77,207.44c1.82-0.83,2.74-2.48,2.74-4.94c0-2.66-0.88-4.44-2.65-5.35   c-0.99-0.52-2.48-0.77-4.46-0.77h-10.64v11.77h10.38C379.2,208.16,380.74,207.92,381.77,207.44z"></path>
&#x9;<path class="st0" d="M421.68,228.02c-0.08,0.1-0.28,0.4-0.59,0.89c-0.32,0.5-0.69,0.93-1.13,1.31c-1.33,1.19-2.61,2-3.85,2.44   c-1.24,0.44-2.69,0.65-4.36,0.65c-4.8,0-8.03-1.72-9.69-5.17c-0.93-1.9-1.4-4.71-1.4-8.42v-19.54h8.68v19.54   c0,1.84,0.22,3.23,0.65,4.16c0.77,1.65,2.29,2.47,4.55,2.47c2.89,0,4.88-1.17,5.95-3.51c0.55-1.27,0.83-2.94,0.83-5.02v-17.63h8.59   v32.41h-8.24V228.02z"></path>
&#x9;<path class="st0" d="M446.8,188.5v7.82h-8.59v-7.82H446.8z M446.8,200.19v32.41h-8.59v-32.41H446.8z"></path>
&#x9;<path class="st0" d="M480.02,232.6h-27.98V226l16.62-18.91h-15.49v-6.9h26.29v7.05l-16.44,18.41h17.01V232.6z"></path>
</g>
<g>
&#x9;<path class="st1" d="M230.82,185.49c0-19.76-12.32-36.68-29.67-43.52c-5.35-2.08-11.16-3.23-17.25-3.25   c-25.72,0.08-46.63,21.03-46.63,46.77c0,25.74,20.91,46.69,46.63,46.77c6.07-0.02,11.86-1.17,17.19-3.23   C218.48,222.2,230.82,205.26,230.82,185.49z"></path>
&#x9;<path class="st2" d="M201.15,141.97c-5.35-2.08-11.16-3.23-17.25-3.25c-0.05,0-0.09,0-0.14,0v93.53c0.05,0,0.1,0,0.15,0   c6.07-0.02,11.86-1.17,17.19-3.23c17.38-6.83,29.72-23.77,29.72-43.54C230.82,165.73,218.51,148.81,201.15,141.97z"></path>
&#x9;<path class="st2" d="M167.01,246.33c-0.88,4.94-1.48,10.28-1.75,15.84c-6.96,11.74-17.11,19.58-21.67,22.71   c-1.12-5.7-3.05-19.45,0.89-33.44c3.2-3.63,6.07-7.29,8.58-10.91C157.43,243,162.1,244.96,167.01,246.33z"></path>
&#x9;<g>
&#x9;&#x9;<path class="st3" d="M151.67,267.5c0,0,1.55,2.69-0.3,3.91c-1.85,1.22-2.83,1.9-2.83,1.9l0.15-1.1l-1.23,0.43l0.21-1.34    l-1.53,0.42c0,0,1.62-3.26,1.97-3.87S150.42,267.33,151.67,267.5z"></path>
&#x9;&#x9;<path class="st4" d="M155.74,252.02c1.76,0.46,6.29,2.17,7.16,7.66c0,0-4.13-1.37-6.47-4.68c-0.23-0.32-0.74-0.15-0.72,0.25    c0.05,0.68,0.12,1.34,0.21,1.96c0.49,3.28-0.45,6.59-2.48,9.07c-0.35,0.43-0.48,0.99-0.42,1.55c0.12,1.22-0.73,2.65-0.73,2.65    l-0.58-2.15l-1.76,1.16l0.83-1.88l-2.5-0.25c0,0,1.34-1.19,2.79-1.17c0.32,0.01,0.63-0.11,0.85-0.34c1.06-1.14,1.84-2.51,2.28-4    c0.12-0.4-0.3-0.76-0.68-0.59c-1.55,0.7-3.9,1.22-6.08-0.48c0,0,2.5-4.97,7.15-1.15c0.05-0.73,0.03-1.47-0.08-2.21    c-0.72-4.83-0.42-11.53,5.12-16.05l0.9,1.11C157.28,245.12,156.04,248.65,155.74,252.02z"></path>
&#x9;</g>
&#x9;<g>
&#x9;&#x9;<path class="st3" d="M216.9,267.5c0,0-1.55,2.69,0.3,3.91c1.85,1.22,2.83,1.9,2.83,1.9l-0.15-1.1l1.23,0.43l-0.21-1.34l1.53,0.42    c0,0-1.62-3.26-1.97-3.87S218.15,267.33,216.9,267.5z"></path>
&#x9;&#x9;<path class="st4" d="M212.83,252.02c-1.76,0.46-6.29,2.17-7.16,7.66c0,0,4.13-1.37,6.47-4.68c0.23-0.32,0.74-0.15,0.72,0.25    c-0.05,0.68-0.12,1.34-0.21,1.96c-0.49,3.28,0.45,6.59,2.48,9.07c0.35,0.43,0.48,0.99,0.42,1.55c-0.12,1.22,0.73,2.65,0.73,2.65    l0.58-2.15l1.76,1.16l-0.83-1.88l2.5-0.25c0,0-1.34-1.19-2.79-1.17c-0.32,0.01-0.63-0.11-0.85-0.34c-1.06-1.14-1.84-2.51-2.28-4    c-0.12-0.4,0.3-0.76,0.68-0.59c1.55,0.7,3.9,1.22,6.08-0.48c0,0-2.5-4.97-7.15-1.15c-0.05-0.73-0.03-1.47,0.08-2.21    c0.72-4.83,0.42-11.53-5.12-16.05l-0.9,1.11C211.29,245.12,212.54,248.65,212.83,252.02z"></path>
&#x9;</g>
&#x9;<path class="st2" d="M224.5,86.09c1.13,5.71,3.05,19.46-0.89,33.44c-3.19,3.62-6.07,7.29-8.58,10.9   c-4.36-2.46-9.02-4.41-13.94-5.79c0.89-4.94,1.48-10.28,1.75-15.84C209.79,97.07,219.94,89.22,224.5,86.09z"></path>
&#x9;<g>
&#x9;&#x9;<path class="st3" d="M216.9,104.08c0,0-1.55-2.69,0.3-3.91c1.85-1.22,2.83-1.9,2.83-1.9l-0.15,1.1l1.23-0.43l-0.21,1.34l1.53-0.42    c0,0-1.62,3.26-1.97,3.87S218.15,104.25,216.9,104.08z"></path>
&#x9;&#x9;<path class="st4" d="M212.83,119.56c-1.76-0.46-6.29-2.17-7.16-7.66c0,0,4.13,1.37,6.47,4.68c0.23,0.32,0.74,0.15,0.72-0.25    c-0.05-0.68-0.12-1.34-0.21-1.96c-0.49-3.28,0.45-6.59,2.48-9.07c0.35-0.43,0.48-0.99,0.42-1.55c-0.12-1.22,0.73-2.65,0.73-2.65    l0.58,2.15l1.76-1.16l-0.83,1.88l2.5,0.25c0,0-1.34,1.19-2.79,1.17c-0.32-0.01-0.63,0.11-0.85,0.34c-1.06,1.14-1.84,2.51-2.28,4    c-0.12,0.4,0.3,0.76,0.68,0.59c1.55-0.7,3.9-1.22,6.08,0.48c0,0-2.5,4.97-7.15,1.15c-0.05,0.73-0.03,1.47,0.08,2.21    c0.72,4.83,0.42,11.53-5.12,16.05l-0.9-1.11C211.29,126.45,212.54,122.93,212.83,119.56z"></path>
&#x9;</g>
&#x9;<path class="st2" d="M165.38,110.88c0.31,4.83,0.88,9.43,1.65,13.76c-4.92,1.38-9.6,3.34-13.96,5.79   c-2.87-4.13-6.23-8.32-9.97-12.44c-3.39-13.22-1.75-25.94-0.75-31.38C147.2,89.84,158.28,98.2,165.38,110.88z"></path>
&#x9;<g>
&#x9;&#x9;<path class="st3" d="M151.67,104.08c0,0,1.55-2.69-0.3-3.91c-1.85-1.22-2.83-1.9-2.83-1.9l0.15,1.1l-1.23-0.43l0.21,1.34    l-1.53-0.42c0,0,1.62,3.26,1.97,3.87S150.42,104.25,151.67,104.08z"></path>
&#x9;&#x9;<path class="st4" d="M155.74,119.56c1.76-0.46,6.29-2.17,7.16-7.66c0,0-4.13,1.37-6.47,4.68c-0.23,0.32-0.74,0.15-0.72-0.25    c0.05-0.68,0.12-1.34,0.21-1.96c0.49-3.28-0.45-6.59-2.48-9.07c-0.35-0.43-0.48-0.99-0.42-1.55c0.12-1.22-0.73-2.65-0.73-2.65    l-0.58,2.15l-1.76-1.16l0.83,1.88l-2.5,0.25c0,0,1.34,1.19,2.79,1.17c0.32-0.01,0.63,0.11,0.85,0.34c1.06,1.14,1.84,2.51,2.28,4    c0.12,0.4-0.3,0.76-0.68,0.59c-1.55-0.7-3.9-1.22-6.08,0.48c0,0,2.5,4.97,7.15,1.15c0.05,0.73,0.03,1.47-0.08,2.21    c-0.72,4.83-0.42,11.53,5.12,16.05l0.9-1.11C157.28,126.45,156.04,122.93,155.74,119.56z"></path>
&#x9;</g>
&#x9;<path class="st1" d="M234.9,186.31h8.25c-0.43,31.95-26.33,57.85-58.28,58.28v-8.25c-0.14,0-0.27-0.01-0.41-0.01   c27.72-0.22,50.22-22.72,50.44-50.44C234.89,186.03,234.9,186.17,234.9,186.31z"></path>
&#x9;<path class="st5" d="M183.24,236.33v8.25c-31.95-0.43-57.85-26.33-58.29-58.28h8.27c0.44,27.39,22.63,49.58,50.02,50.02V236.33z"></path>
&#x9;<path class="st1" d="M183.24,126.39v8.27c-27.39,0.44-49.58,22.63-50.02,50.02h-8.27C125.39,152.72,151.28,126.83,183.24,126.39z"></path>
&#x9;<path class="st5" d="M243.15,184.68h-8.25h-0.01c-0.43-27.39-22.63-49.58-50.02-50.02v-8.27   C216.82,126.83,242.71,152.72,243.15,184.68z"></path>
&#x9;<path class="st2" d="M141.93,213.92l-4.75,5.16l6.39-2.87C143.01,215.47,142.46,214.7,141.93,213.92z M147.1,220.35l-3.84,5.85   l5.83-3.86C148.4,221.7,147.74,221.03,147.1,220.35z M144.38,217.24l-4.31,5.53l6.13-3.38   C145.58,218.69,144.97,217.97,144.38,217.24z M133.24,186.79l-6.81,1.78l6.96,1.05C133.31,188.68,133.26,187.74,133.24,186.79z    M139.76,210.41l-5.16,4.76l6.62-2.34C140.71,212.04,140.22,211.23,139.76,210.41z M134.11,194.98l-6.43,2.86l7.03-0.1   C134.49,196.83,134.29,195.91,134.11,194.98z M133.51,190.9l-6.64,2.33l7.01,0.48C133.73,192.78,133.61,191.84,133.51,190.9z    M136.3,202.93l-5.87,3.86l6.91-1.23C136.97,204.69,136.63,203.82,136.3,202.93z M135.04,199l-6.16,3.37l7-0.67   C135.57,200.81,135.29,199.91,135.04,199z M137.88,206.74l-5.53,4.33l6.79-1.8C138.7,208.44,138.28,207.59,137.88,206.74z    M153.23,225.88l-2.82,6.36l5.08-4.72C154.72,227,153.97,226.45,153.23,225.88z M176.3,242.45l2.22-6.42   c-0.91-0.1-1.82-0.22-2.72-0.36L176.3,242.45z M150.05,223.24l-3.34,6.13l5.48-4.31C151.46,224.47,150.74,223.87,150.05,223.24z    M179.93,236.15l1.04,6.72l1.69-6.57C181.74,236.27,180.83,236.22,179.93,236.15z M158.44,237.05l4.23-5.45   c-0.84-0.39-1.67-0.8-2.49-1.24L158.44,237.05z M156.61,228.26l-2.29,6.55l4.67-5.11C158.19,229.24,157.39,228.76,156.61,228.26z    M162.73,238.94l3.75-5.75c-0.87-0.32-1.73-0.66-2.57-1.02L162.73,238.94z M167.15,240.48l3.26-6.02   c-0.89-0.25-1.77-0.52-2.64-0.82L167.15,240.48z M171.69,241.65l2.75-6.25c-0.9-0.17-1.8-0.37-2.69-0.59L171.69,241.65z"></path>
&#x9;<path class="st2" d="M155.17,143.65l-5.21-4.69l2.93,6.36C153.64,144.75,154.4,144.19,155.17,143.65z M148.8,148.88l-5.89-3.78   l3.92,5.79C147.47,150.21,148.12,149.54,148.8,148.88z M151.88,146.14l-5.57-4.25l3.44,6.1   C150.44,147.35,151.16,146.74,151.88,146.14z M182.22,134.68l-1.85-6.79l-0.98,6.97C180.33,134.78,181.27,134.71,182.22,134.68z    M158.66,141.45l-4.82-5.11l2.41,6.6C157.05,142.42,157.85,141.92,158.66,141.45z M174.04,135.64l-2.93-6.4l0.17,7.03   C172.18,136.04,173.11,135.83,174.04,135.64z M178.11,134.99l-2.4-6.61l-0.4,7.01C176.23,135.23,177.17,135.1,178.11,134.99z    M166.11,137.91l-3.92-5.83l1.31,6.89C164.35,138.6,165.23,138.25,166.11,137.91z M170.02,136.61l-3.44-6.13l0.74,6.99   C168.22,137.16,169.11,136.87,170.02,136.61z M162.32,139.53l-4.39-5.49l1.87,6.77C160.62,140.36,161.46,139.94,162.32,139.53z    M143.33,155.07l-6.39-2.75l4.77,5.04C142.23,156.57,142.77,155.82,143.33,155.07z M127.01,178.32l6.45,2.16   c0.09-0.91,0.2-1.82,0.34-2.72L127.01,178.32z M145.94,151.86l-6.16-3.27l4.37,5.43C144.72,153.29,145.32,152.57,145.94,151.86z    M133.34,181.88l-6.71,1.11l6.59,1.62C133.24,183.69,133.28,182.78,133.34,181.88z M132.22,160.4l5.49,4.17   c0.38-0.85,0.79-1.68,1.21-2.5L132.22,160.4z M140.99,158.48l-6.58-2.22l5.15,4.62C140.02,160.07,140.5,159.27,140.99,158.48z    M130.37,164.71l5.79,3.69c0.31-0.87,0.64-1.73,1-2.58L130.37,164.71z M128.88,169.15l6.05,3.2c0.24-0.89,0.5-1.77,0.79-2.64   L128.88,169.15z M127.76,173.69l6.28,2.69c0.16-0.91,0.35-1.8,0.56-2.69L127.76,173.69z"></path>
&#x9;<path class="st2" d="M225.58,157.89l4.85-5.06l-6.45,2.74C224.53,156.32,225.06,157.1,225.58,157.89z M220.54,151.36l3.96-5.78   l-5.91,3.74C219.26,149.98,219.91,150.66,220.54,151.36z M223.19,154.53l4.42-5.44l-6.2,3.25   C222.02,153.05,222.61,153.78,223.19,154.53z M233.72,185.2l6.84-1.64l-6.94-1.19C233.68,183.3,233.71,184.24,233.72,185.2z    M227.67,161.44l5.25-4.66l-6.67,2.21C226.75,159.8,227.23,160.61,227.67,161.44z M233.01,176.99l6.48-2.73l-7.03-0.05   C232.67,175.12,232.85,176.05,233.01,176.99z M233.53,181.08l6.68-2.19l-7-0.62C233.35,179.19,233.45,180.13,233.53,181.08z    M230.98,168.99l5.94-3.74l-6.93,1.09C230.35,167.22,230.67,168.1,230.98,168.99z M232.16,172.95l6.23-3.25l-7.01,0.53   C231.67,171.12,231.93,172.03,232.16,172.95z M229.48,165.16l5.62-4.22l-6.83,1.66C228.7,163.44,229.1,164.29,229.48,165.16z    M214.52,145.7l2.95-6.3l-5.18,4.61C213.05,144.55,213.79,145.12,214.52,145.7z M191.78,128.68l-2.35,6.38   c0.91,0.12,1.81,0.25,2.71,0.42L191.78,128.68z M217.65,148.41l3.46-6.06l-5.56,4.2C216.26,147.15,216.97,147.76,217.65,148.41z    M188.04,134.9l-0.91-6.74l-1.82,6.53C186.22,134.74,187.13,134.81,188.04,134.9z M209.53,134.44l-4.34,5.37   c0.83,0.41,1.66,0.84,2.46,1.29L209.53,134.44z M211.18,143.26l2.42-6.51l-4.78,5.01C209.63,142.24,210.41,142.74,211.18,143.26z    M205.29,132.46l-3.86,5.67c0.86,0.34,1.71,0.69,2.55,1.08L205.29,132.46z M200.89,130.83l-3.38,5.95   c0.88,0.27,1.76,0.56,2.62,0.87L200.89,130.83z M196.38,129.57l-2.88,6.19c0.9,0.19,1.79,0.41,2.67,0.65L196.38,129.57z"></path>
&#x9;<path class="st2" d="M211.53,227.16l5.11,4.8l-2.8-6.43C213.09,226.1,212.32,226.64,211.53,227.16z M218.02,222.07l5.81,3.9   l-3.8-5.87C219.38,220.77,218.71,221.43,218.02,222.07z M214.87,224.74l5.48,4.37l-3.31-6.17   C216.34,223.56,215.61,224.16,214.87,224.74z M184.3,235.55l1.71,6.83l1.13-6.95C186.2,235.5,185.25,235.54,184.3,235.55z    M208,229.29l4.71,5.21l-2.27-6.65C209.64,228.36,208.82,228.84,208,229.29z M192.5,234.77l2.79,6.46l-0.02-7.03   C194.36,234.41,193.44,234.6,192.5,234.77z M188.42,235.33l2.26,6.66l0.55-7C190.3,235.13,189.36,235.24,188.42,235.33z    M200.48,232.67l3.8,5.91l-1.16-6.92C202.25,232.02,201.37,232.35,200.48,232.67z M196.54,233.88l3.3,6.2l-0.59-7   C198.35,233.37,197.45,233.64,196.54,233.88z M204.3,231.13l4.27,5.58l-1.72-6.81C206.01,230.33,205.16,230.74,204.3,231.13z    M223.62,216l6.33,2.89l-4.66-5.14C224.75,214.52,224.19,215.26,223.62,216z M240.43,193.1l-6.4-2.29   c-0.11,0.91-0.24,1.82-0.39,2.71L240.43,193.1z M220.94,219.15l6.09,3.41l-4.25-5.53C222.19,217.75,221.58,218.46,220.94,219.15z    M234.18,189.41l6.73-0.97l-6.55-1.76C234.32,187.6,234.26,188.51,234.18,189.41z M234.84,210.9l-5.4-4.29   c-0.4,0.84-0.82,1.66-1.27,2.48L234.84,210.9z M226.03,212.64l6.53,2.36l-5.05-4.73C227.03,211.07,226.54,211.86,226.03,212.64z    M236.78,206.64l-5.71-3.81c-0.33,0.86-0.68,1.72-1.05,2.56L236.78,206.64z M238.36,202.23l-5.98-3.32   c-0.26,0.89-0.54,1.76-0.85,2.63L238.36,202.23z M239.59,197.71l-6.22-2.82c-0.18,0.9-0.39,1.8-0.62,2.68L239.59,197.71z"></path>
&#x9;<path class="st1" d="M140.06,230.82c3.51,3.41,4.57,8.58,2.72,13.11c-0.05,0.1-0.09,0.2-0.12,0.3c-0.71,1.73-1.31,3.47-1.83,5.21   c-1.68,1.88-3.48,3.79-5.38,5.7c-14.86,14.85-35.22,20.04-42.54,21.5c1.45-7.32,6.62-27.66,21.5-42.53   c1.37-1.37,2.75-2.69,4.14-3.97c2.42-0.67,4.86-1.5,7.29-2.52c0.1-0.04,0.2-0.09,0.3-0.12c4.51-1.92,9.7-0.91,13.16,2.57   C139.55,230.31,139.81,230.57,140.06,230.82z"></path>
&#x9;<path class="st6" d="M260.73,204.28c11.74,6.95,19.58,17.1,22.71,21.66c-5.7,1.13-19.46,3.05-33.44-0.89   c-3.63-3.19-7.29-6.07-10.91-8.58c2.47-4.36,4.42-9.02,5.79-13.94C249.84,203.41,255.17,204,260.73,204.28z"></path>
&#x9;<path class="st6" d="M123.2,202.5c1.38,4.92,3.34,9.6,5.79,13.96c-4.13,2.87-8.32,6.23-12.44,9.97   c-13.22,3.39-25.94,1.75-31.38,0.75c3.23-4.83,11.59-15.92,24.28-23.01C114.26,203.85,118.87,203.28,123.2,202.5z"></path>
&#x9;<path class="st6" d="M129,154.51c-2.46,4.36-4.41,9.03-5.79,13.94c-4.94-0.88-10.28-1.48-15.84-1.75   c-11.74-6.96-19.58-17.11-22.71-21.67c5.71-1.12,19.46-3.05,33.44,0.89C121.72,149.13,125.39,152,129,154.51z"></path>
&#x9;<path class="st6" d="M268.54,142.52c6.25,0,11.41,0.74,14.39,1.29c-3.24,4.83-11.59,15.92-24.28,23.02   c-4.82,0.31-9.43,0.88-13.76,1.65c-1.37-4.92-3.33-9.6-5.79-13.96c4.13-2.86,8.32-6.23,12.44-9.97   C257.53,143.02,263.4,142.52,268.54,142.52z"></path>
&#x9;<path class="st7" d="M183.24,57.85v64.45c-0.07,0.01-0.13,0.01-0.2,0.01c-4.88,0.08-9.27-2.86-11.14-7.36   c-0.04-0.09-0.08-0.17-0.11-0.26c-0.73-1.73-1.54-3.38-2.39-4.98c-0.14-2.53-0.22-5.14-0.22-7.84   C169.17,82.13,178.65,64.98,183.24,57.85z"></path>
&#x9;<path class="st1" d="M275.19,94.35c-1.45,7.32-6.64,27.68-21.5,42.53c-1.39,1.38-2.77,2.7-4.15,3.97   c-2.42,0.67-4.86,1.49-7.29,2.51c-0.1,0.05-0.2,0.09-0.3,0.13c-4.51,1.92-9.7,0.9-13.16-2.57c-0.26-0.26-0.51-0.51-0.77-0.77   c-3.51-3.41-4.57-8.58-2.71-13.11c0.04-0.1,0.08-0.2,0.12-0.31c0.71-1.73,1.3-3.47,1.82-5.21c1.69-1.89,3.48-3.79,5.39-5.7   C247.51,100.99,267.87,95.8,275.19,94.35z"></path>
&#x9;<path class="st1" d="M142.06,127.57c1.92,4.51,0.9,9.7-2.57,13.16c-0.26,0.26-0.51,0.52-0.77,0.77c-3.41,3.51-8.59,4.57-13.11,2.72   c-0.1-0.05-0.2-0.09-0.29-0.12c-1.73-0.71-3.47-1.31-5.21-1.82c-1.92-1.71-3.83-3.51-5.7-5.39c-14.86-14.86-20.04-35.22-21.5-42.54   c7.32,1.45,27.65,6.62,42.53,21.5c1.38,1.39,2.7,2.77,3.97,4.15c0.67,2.42,1.49,4.86,2.51,7.29   C141.97,127.37,142.01,127.47,142.06,127.57z"></path>
&#x9;<path class="st1" d="M253.69,234.1c14.85,14.85,20.04,35.21,21.5,42.53c-7.32-1.45-27.68-6.64-42.53-21.5   c-1.39-1.39-2.71-2.77-3.98-4.15c-0.67-2.42-1.49-4.86-2.51-7.29c-0.04-0.1-0.09-0.2-0.12-0.3c-1.92-4.51-0.91-9.7,2.57-13.16   c0.26-0.26,0.51-0.51,0.77-0.77c3.41-3.51,8.58-4.57,13.11-2.71c0.1,0.04,0.2,0.08,0.3,0.12c1.74,0.71,3.48,1.31,5.22,1.83   C249.89,230.4,251.79,232.19,253.69,234.1z"></path>
&#x9;<path class="st2" d="M224.99,253c3.38,13.22,1.75,25.94,0.74,31.38c-4.83-3.24-15.92-11.59-23.01-24.28   c-0.31-4.82-0.88-9.43-1.66-13.76c4.92-1.37,9.6-3.33,13.96-5.79C217.89,244.67,221.25,248.87,224.99,253z"></path>
&#x9;<linearGradient id="SVGID_1_" gradientUnits="userSpaceOnUse" x1="277.8816" y1="185.491" x2="103.3876" y2="185.491">
&#x9;&#x9;<stop offset="0" style="stop-color:#4D1244"></stop>
&#x9;&#x9;<stop offset="0.4925" style="stop-color:#362768"></stop>
&#x9;&#x9;<stop offset="0.9754" style="stop-color:#362768"></stop>
&#x9;</linearGradient>
&#x9;<path class="st8" d="M334.72,184.68v1.63h-15.96l-1.03,0.8c-0.9,0.7-22.35,17.04-49.35,17.32c12.8,9.39,19.76,21.19,20.14,21.83   l1.32,2.28l-2.54,0.71c-0.55,0.15-8.43,2.3-19.14,2.3c-3.79,0-7.95-0.27-12.26-0.99c0.23,0.22,0.45,0.44,0.68,0.67   c19.33,19.33,22.99,46.51,23.14,47.66l0.33,2.61l-2.61-0.33c-1.14-0.15-27.85-3.75-47.15-22.65c2.41,15.69-1.01,28.95-1.2,29.67   l-0.67,2.54l-2.3-1.29c-0.67-0.38-13.43-7.69-23.12-21.29c0.01,0.32,0.01,0.63,0.01,0.95c0,27.34-16.63,49.15-17.34,50.06   l-0.8,1.03v15.96h-1.63V320.2l-0.8-1.03c-0.71-0.9-17.04-22.35-17.33-49.35c-9.38,12.8-21.18,19.76-21.83,20.14l-2.28,1.32   l-0.71-2.54c-0.21-0.75-4.05-14.93-1.3-31.4c-0.22,0.23-0.44,0.46-0.67,0.69c-19.33,19.33-46.51,22.99-47.66,23.14l-2.61,0.33   l0.33-2.61c0.14-1.14,3.75-27.85,22.64-47.15c-4.05,0.63-7.95,0.86-11.51,0.86c-10.2,0-17.62-1.92-18.16-2.06l-2.54-0.67l1.29-2.3   c0.38-0.67,7.69-13.43,21.29-23.12c-0.32,0-0.64,0.01-0.96,0.01c-27.34,0-49.15-16.63-50.06-17.34l-1.03-0.8H33.38v-1.63h15.96   l1.03-0.8c0.91-0.71,22.35-17.05,49.35-17.33c-12.8-9.38-19.76-21.18-20.14-21.83l-1.32-2.28l2.54-0.71   c0.74-0.21,14.92-4.05,31.4-1.3c-0.22-0.22-0.46-0.44-0.68-0.67C92.19,120.43,88.53,93.25,88.39,92.1l-0.33-2.61l2.61,0.33   c1.14,0.14,27.85,3.75,47.15,22.64c-2.41-15.69,1.01-28.95,1.2-29.67l0.68-2.54l2.3,1.29c0.67,0.38,13.42,7.69,23.12,21.29   c0-0.32-0.01-0.64-0.01-0.96c0-27.34,16.63-49.15,17.34-50.06l0.8-1.03V34.82h1.63v15.96l0.8,1.03   c0.7,0.91,17.04,22.35,17.32,49.35c9.39-12.8,21.19-19.76,21.83-20.14l2.28-1.32l0.71,2.54c0.21,0.74,4.05,14.92,1.29,31.4   c0.23-0.22,0.44-0.46,0.67-0.68c19.33-19.34,46.51-22.99,47.66-23.14l2.61-0.33l-0.33,2.61c-0.15,1.14-3.75,27.85-22.65,47.15   c15.69-2.41,28.95,1.01,29.67,1.2l2.54,0.68l-1.29,2.3c-0.38,0.67-7.69,13.42-21.29,23.12c0.32,0,0.63-0.01,0.95-0.01   c27.34,0,49.15,16.63,50.06,17.34l1.03,0.8H334.72z M247.24,184.68h64.45c-7.14-4.59-24.28-14.07-44.03-14.07   c-2.69,0-5.31,0.08-7.83,0.22c-1.6,0.86-3.25,1.67-4.98,2.39c-0.09,0.03-0.18,0.07-0.27,0.11c-4.49,1.88-7.43,6.26-7.34,11.14   C247.24,184.54,247.24,184.61,247.24,184.68z M311.69,186.31h-64.42c0.27,4.63,3.13,8.7,7.46,10.46c0.09,0.04,0.18,0.07,0.26,0.11   c2.44,0.99,4.75,2.13,6.93,3.37c1.87,0.07,3.79,0.12,5.74,0.12C287.41,200.37,304.55,190.89,311.69,186.31z M282.93,143.8   c-2.98-0.55-8.15-1.29-14.39-1.29c-5.14,0-11.01,0.5-16.99,2.03c-4.12,3.74-8.32,7.1-12.44,9.97c2.47,4.36,4.42,9.04,5.79,13.96   c4.33-0.78,8.94-1.35,13.76-1.65C271.34,159.72,279.7,148.64,282.93,143.8z M283.44,225.94c-3.13-4.56-10.97-14.71-22.71-21.66   c-5.56-0.27-10.9-0.86-15.84-1.75c-1.37,4.92-3.33,9.59-5.79,13.94c3.62,2.51,7.28,5.39,10.91,8.58   C263.99,228.99,277.74,227.07,283.44,225.94z M253.69,136.89c14.85-14.86,20.04-35.21,21.5-42.53   c-7.32,1.45-27.68,6.64-42.53,21.49c-1.91,1.91-3.7,3.81-5.39,5.7c-0.52,1.73-1.12,3.47-1.82,5.21c-0.05,0.1-0.09,0.2-0.12,0.31   c-1.86,4.53-0.79,9.69,2.71,13.11c0.26,0.26,0.52,0.51,0.77,0.77c3.46,3.47,8.65,4.49,13.16,2.57c0.1-0.05,0.2-0.09,0.3-0.13   c2.43-1.02,4.87-1.84,7.29-2.51C250.93,139.59,252.31,138.27,253.69,136.89z M275.19,276.63c-1.45-7.32-6.64-27.68-21.5-42.53   c-1.9-1.9-3.81-3.69-5.69-5.38c-1.74-0.52-3.48-1.12-5.22-1.83c-0.1-0.05-0.2-0.09-0.3-0.12c-4.53-1.86-9.7-0.79-13.11,2.71   c-0.26,0.26-0.51,0.52-0.77,0.77c-3.48,3.45-4.49,8.65-2.57,13.16c0.04,0.1,0.09,0.2,0.12,0.3c1.02,2.43,1.84,4.87,2.51,7.29   c1.27,1.38,2.59,2.76,3.98,4.15C247.51,269.99,267.87,275.18,275.19,276.63z M234.89,184.68h8.25   c-0.43-31.95-26.33-57.85-58.28-58.29v8.27h-1.63v-8.27c-31.95,0.44-57.85,26.34-58.29,58.29h8.27v1.63h-8.27   c0.44,31.95,26.34,57.85,58.29,58.28v-8.25h1.22c0.14,0,0.27,0.01,0.41,0.01v8.25c31.95-0.43,57.85-26.33,58.28-58.28h-8.25   c0-0.14-0.01-0.27-0.01-0.41V184.68z M225.73,284.37c1.01-5.44,2.64-18.16-0.74-31.38c-3.75-4.13-7.1-8.32-9.97-12.45   c-4.36,2.47-9.04,4.42-13.96,5.79c0.78,4.33,1.35,8.94,1.66,13.76C209.81,272.78,220.9,281.14,225.73,284.37z M223.61,119.54   c3.94-13.99,2.02-27.73,0.89-33.44c-4.56,3.13-14.71,10.97-21.66,22.71c-0.27,5.56-0.86,10.9-1.75,15.84   c4.92,1.38,9.59,3.34,13.94,5.79C217.54,126.83,220.41,123.16,223.61,119.54z M198.81,107.61c0.07-1.87,0.12-3.78,0.12-5.74   c0-19.78-9.48-36.91-14.06-44.04v64.43c4.63-0.27,8.7-3.12,10.46-7.46c0.04-0.09,0.07-0.18,0.11-0.26   C196.42,112.1,197.57,109.8,198.81,107.61z M198.93,269.1c0-2.69-0.08-5.31-0.22-7.83c-0.86-1.6-1.66-3.25-2.39-4.98   c-0.04-0.09-0.08-0.18-0.11-0.27c-1.88-4.49-6.27-7.43-11.14-7.34c-0.07,0-0.13,0-0.2,0v64.45   C189.45,305.99,198.93,288.85,198.93,269.1z M183.24,313.14v-64.43c-4.63,0.27-8.71,3.13-10.46,7.46c-0.03,0.09-0.07,0.18-0.1,0.26   c-0.99,2.44-2.14,4.75-3.37,6.93c-0.08,1.87-0.12,3.78-0.12,5.74C169.17,288.89,178.65,306.01,183.24,313.14z M183.24,122.3V57.85   c-4.59,7.13-14.07,24.28-14.07,44.02c0,2.7,0.08,5.31,0.22,7.84c0.86,1.6,1.67,3.25,2.39,4.98c0.03,0.09,0.07,0.17,0.11,0.26   c1.88,4.5,6.26,7.44,11.14,7.36C183.11,122.3,183.17,122.3,183.24,122.3z M167.04,124.64c-0.78-4.33-1.35-8.93-1.65-13.76   c-7.1-12.67-18.19-21.04-23.02-24.28c-1.01,5.44-2.64,18.16,0.75,31.38c3.74,4.12,7.1,8.32,9.97,12.44   C157.44,127.97,162.12,126.02,167.04,124.64z M165.27,262.17c0.27-5.56,0.86-10.9,1.75-15.84c-4.91-1.37-9.59-3.33-13.94-5.79   c-2.51,3.62-5.38,7.28-8.58,10.91c-3.94,13.99-2.01,27.73-0.89,33.44C148.16,281.75,158.31,273.91,165.27,262.17z M142.78,243.93   c1.85-4.53,0.79-9.7-2.72-13.11c-0.26-0.26-0.52-0.51-0.77-0.77c-3.45-3.48-8.65-4.49-13.16-2.57c-0.1,0.04-0.2,0.09-0.3,0.12   c-2.43,1.02-4.87,1.85-7.29,2.52c-1.39,1.28-2.77,2.6-4.14,3.97c-14.88,14.88-20.06,35.22-21.5,42.53   c7.32-1.45,27.68-6.64,42.54-21.5c1.9-1.91,3.7-3.81,5.38-5.7c0.52-1.74,1.12-3.48,1.83-5.21   C142.7,244.13,142.74,244.02,142.78,243.93z M139.49,140.73c3.47-3.45,4.49-8.65,2.57-13.16c-0.05-0.1-0.09-0.2-0.13-0.3   c-1.02-2.43-1.84-4.87-2.51-7.29c-1.27-1.37-2.59-2.76-3.97-4.15c-14.88-14.88-35.22-20.05-42.53-21.5   c1.45,7.32,6.64,27.68,21.5,42.54c1.88,1.88,3.79,3.68,5.7,5.39c1.73,0.52,3.47,1.12,5.21,1.82c0.1,0.04,0.2,0.08,0.29,0.12   c4.53,1.85,9.7,0.79,13.11-2.72C138.98,141.25,139.23,140.99,139.49,140.73z M123.2,168.45c1.38-4.91,3.34-9.59,5.79-13.94   c-3.61-2.51-7.28-5.38-10.9-8.58c-13.99-3.94-27.73-2.01-33.44-0.89c3.13,4.56,10.97,14.71,22.71,21.67   C112.92,166.97,118.27,167.57,123.2,168.45z M128.99,216.46c-2.46-4.36-4.41-9.04-5.79-13.96c-4.33,0.78-8.93,1.35-13.75,1.66   c-12.68,7.1-21.04,18.18-24.28,23.01c5.43,1.01,18.15,2.64,31.38-0.75C120.67,222.69,124.86,219.33,128.99,216.46z M113.51,197.64   c4.5-1.88,7.43-6.27,7.35-11.14c0-0.07,0-0.13,0-0.2H56.41c7.13,4.58,24.28,14.06,44.02,14.06c2.7,0,5.31-0.08,7.84-0.22   c1.6-0.86,3.25-1.66,4.98-2.39C113.33,197.72,113.43,197.68,113.51,197.64z M56.41,184.68h64.42c-0.27-4.63-3.13-8.71-7.47-10.46   c-0.09-0.03-0.18-0.07-0.26-0.1c-2.44-0.99-4.74-2.14-6.93-3.37c-1.87-0.08-3.78-0.12-5.74-0.12   C80.69,170.61,63.54,180.09,56.41,184.68z"></path>
&#x9;<path class="st0" d="M311.69,184.68h-64.45c0-0.07,0-0.14,0-0.2c-0.09-4.87,2.85-9.25,7.34-11.14c0.09-0.04,0.18-0.08,0.27-0.11   c1.73-0.73,3.38-1.54,4.98-2.39c2.52-0.14,5.14-0.22,7.83-0.22C287.41,170.61,304.55,180.09,311.69,184.68z"></path>
&#x9;<path class="st9" d="M247.27,186.31h64.42c-7.14,4.58-24.28,14.06-44.03,14.06c-1.96,0-3.87-0.05-5.74-0.12   c-2.18-1.24-4.49-2.39-6.93-3.37c-0.09-0.04-0.17-0.07-0.26-0.11C250.4,195.01,247.54,190.94,247.27,186.31z"></path>
&#x9;<path class="st9" d="M198.93,101.87c0,1.96-0.05,3.87-0.12,5.74c-1.24,2.18-2.39,4.49-3.37,6.93c-0.04,0.09-0.07,0.18-0.11,0.26   c-1.75,4.34-5.83,7.19-10.46,7.46V57.83C189.45,64.96,198.93,82.09,198.93,101.87z"></path>
&#x9;<path class="st7" d="M198.7,261.27c0.14,2.52,0.22,5.14,0.22,7.83c0,19.75-9.48,36.89-14.06,44.03v-64.45c0.07,0,0.13,0,0.2,0   c4.87-0.09,9.26,2.85,11.14,7.34c0.03,0.09,0.07,0.18,0.11,0.27C197.04,258.02,197.85,259.67,198.7,261.27z"></path>
&#x9;<path class="st9" d="M183.24,248.71v64.43c-4.59-7.13-14.07-24.26-14.07-44.04c0-1.96,0.05-3.86,0.12-5.74   c1.24-2.18,2.38-4.49,3.37-6.93c0.03-0.09,0.07-0.17,0.1-0.26C174.53,251.84,178.61,248.98,183.24,248.71z"></path>
&#x9;<path class="st9" d="M120.86,186.5c0.08,4.87-2.85,9.26-7.35,11.14c-0.09,0.03-0.18,0.07-0.26,0.11c-1.73,0.73-3.38,1.53-4.98,2.39   c-2.53,0.14-5.14,0.22-7.84,0.22c-19.74,0-36.89-9.48-44.02-14.06h64.45C120.86,186.37,120.86,186.44,120.86,186.5z"></path>
&#x9;<path class="st0" d="M120.83,184.68H56.41c7.13-4.59,24.28-14.07,44.02-14.07c1.96,0,3.87,0.05,5.74,0.12   c2.18,1.24,4.49,2.38,6.93,3.37c0.09,0.03,0.18,0.07,0.26,0.1C117.7,175.97,120.56,180.05,120.83,184.68z"></path>
&#x9;
&#x9;&#x9;<linearGradient id="SVGID_00000146497699739161346400000015196142342694092734_" gradientUnits="userSpaceOnUse" x1="184.0544" y1="41.5834" x2="184.0544" y2="276.0168">
&#x9;&#x9;<stop offset="0" style="stop-color:#4D1244"></stop>
&#x9;&#x9;<stop offset="0.4925" style="stop-color:#362768"></stop>
&#x9;&#x9;<stop offset="0.9952" style="stop-color:#362768"></stop>
&#x9;</linearGradient>
&#x9;<path style="fill:url(#SVGID_00000146497699739161346400000015196142342694092734_);" d="M183.24,236.32   c-27.39-0.43-49.58-22.63-50.02-50.02v-1.63c0.44-27.39,22.63-49.58,50.02-50.02h1.63c27.39,0.44,49.58,22.63,50.02,50.02h0.01   v1.22c-0.22,27.72-22.72,50.22-50.44,50.44h-1.22V236.32z M230.83,185.49c0-25.79-20.99-46.77-46.78-46.77   s-46.77,20.98-46.77,46.77s20.98,46.78,46.77,46.78S230.83,211.28,230.83,185.49z"></path>
&#x9;<polygon class="st1" points="184.05,21.82 186.32,30.79 194.74,26.97 189.14,34.33 197.38,38.54 188.13,38.75 189.98,47.81    184.05,40.72 178.12,47.81 179.97,38.75 170.72,38.54 178.96,34.33 173.36,26.97 181.78,30.79  "></polygon>
&#x9;<polygon class="st1" points="184.05,349.16 181.78,340.19 173.36,344.01 178.96,336.65 170.72,332.44 179.97,332.23 178.12,323.16    184.05,330.26 189.98,323.16 188.13,332.23 197.38,332.44 189.14,336.65 194.74,344.01 186.32,340.19  "></polygon>
&#x9;<polygon class="st2" points="347.72,185.49 338.75,187.76 342.57,196.18 335.21,190.58 331,198.82 330.79,189.57 321.72,191.42    328.82,185.49 321.72,179.56 330.79,181.41 331,172.16 335.21,180.4 342.57,174.8 338.75,183.22  "></polygon>
&#x9;<polygon class="st2" points="20.38,185.49 29.35,183.22 25.53,174.8 32.89,180.4 37.1,172.16 37.31,181.41 46.37,179.56    39.28,185.49 46.37,191.42 37.31,189.57 37.1,198.82 32.89,190.58 25.53,196.18 29.35,187.76  "></polygon>
&#x9;<g>
&#x9;&#x9;<g>
&#x9;&#x9;&#x9;<path class="st6" d="M136.3,140.13c0,0-11.29-0.24-18.07-7.35c-6.78-7.11-6.47-18.4-6.47-18.4s11.29,0.24,18.07,7.35     C136.61,128.84,136.3,140.13,136.3,140.13z"></path>
&#x9;&#x9;&#x9;<path class="st11" d="M136.3,140.13l-24.54-25.75c0,0-0.31,11.29,6.47,18.4C125.01,139.9,136.3,140.13,136.3,140.13z"></path>
&#x9;&#x9;&#x9;<path class="st4" d="M132.2,124.79c-0.15-0.23-0.3-0.46-0.45-0.69c-0.71,1.21-1.94,3.65-2.13,6.38c-0.05,0.76-0.96,1.1-1.49,0.55     l-2.8-2.94c-3.05-3.2-4.59-7.51-4.28-11.85c-0.26-0.09-0.51-0.18-0.77-0.26c-0.22,1.63-0.36,3.81,0.01,5.91     c0.06,0.34-0.35,0.56-0.59,0.31l-7.42-7.78c-0.33-0.02-0.52-0.03-0.52-0.03s0,0.18,0,0.52l7.42,7.79c0.24,0.25,0,0.65-0.33,0.57     c-2.07-0.47-4.26-0.44-5.9-0.3c0.07,0.26,0.15,0.52,0.23,0.78c4.34-0.1,8.58,1.65,11.63,4.85l2.8,2.94     c0.52,0.55,0.14,1.44-0.62,1.46c-2.73,0.07-5.23,1.17-6.47,1.82c0.22,0.17,0.44,0.33,0.67,0.49c4.15-1.9,9.12-0.95,12.32,2.41     l2.29,2.4c0.33,0.02,0.52,0.03,0.52,0.03s0-0.18,0-0.52l-2.29-2.4C130.82,133.85,130.11,128.85,132.2,124.79z"></path>
&#x9;&#x9;</g>
&#x9;&#x9;<polygon class="st12" points="106.83,102.78 107.83,106.74 111.55,105.05 109.08,108.3 112.72,110.16 108.63,110.26     109.45,114.26 106.83,111.13 104.2,114.26 105.02,110.26 100.94,110.16 104.58,108.3 102.1,105.05 105.82,106.74   "></polygon>
&#x9;</g>
&#x9;<g>
&#x9;&#x9;<g>
&#x9;&#x9;&#x9;<path class="st6" d="M232.27,140.13c0,0,11.29-0.24,18.07-7.35c6.78-7.11,6.47-18.4,6.47-18.4s-11.29,0.24-18.07,7.35     S232.27,140.13,232.27,140.13z"></path>
&#x9;&#x9;&#x9;<path class="st11" d="M232.27,140.13l24.54-25.75c0,0,0.31,11.29-6.47,18.4C243.56,139.9,232.27,140.13,232.27,140.13z"></path>
&#x9;&#x9;&#x9;<path class="st4" d="M236.37,124.79c0.15-0.23,0.3-0.46,0.45-0.69c0.71,1.21,1.94,3.65,2.13,6.38c0.05,0.76,0.96,1.1,1.49,0.55     l2.8-2.94c3.05-3.2,4.59-7.51,4.28-11.85c0.26-0.09,0.51-0.18,0.77-0.26c0.22,1.63,0.36,3.81-0.01,5.91     c-0.06,0.34,0.35,0.56,0.59,0.31l7.42-7.78c0.33-0.02,0.52-0.03,0.52-0.03s0,0.18,0,0.52l-7.42,7.79c-0.24,0.25,0,0.65,0.33,0.57     c2.07-0.47,4.26-0.44,5.9-0.3c-0.07,0.26-0.15,0.52-0.23,0.78c-4.34-0.1-8.58,1.65-11.63,4.85l-2.8,2.94     c-0.52,0.55-0.14,1.44,0.62,1.46c2.73,0.07,5.23,1.17,6.47,1.82c-0.22,0.17-0.44,0.33-0.67,0.49c-4.15-1.9-9.12-0.95-12.32,2.41     l-2.29,2.4c-0.33,0.02-0.52,0.03-0.52,0.03s0-0.18,0-0.52l2.29-2.4C237.76,133.85,238.47,128.85,236.37,124.79z"></path>
&#x9;&#x9;</g>
&#x9;&#x9;<polygon class="st12" points="261.75,102.78 260.74,106.74 257.02,105.05 259.5,108.3 255.86,110.16 259.94,110.26 259.12,114.26     261.75,111.13 264.37,114.26 263.55,110.26 267.64,110.16 264,108.3 266.47,105.05 262.75,106.74   "></polygon>
&#x9;</g>
&#x9;<g>
&#x9;&#x9;<g>
&#x9;&#x9;&#x9;<path class="st6" d="M136.3,230.85c0,0-11.29,0.24-18.07,7.35s-6.47,18.4-6.47,18.4s11.29-0.24,18.07-7.35     C136.61,242.14,136.3,230.85,136.3,230.85z"></path>
&#x9;&#x9;&#x9;<path class="st11" d="M136.3,230.85l-24.54,25.75c0,0-0.31-11.29,6.47-18.4C125.01,231.08,136.3,230.85,136.3,230.85z"></path>
&#x9;&#x9;&#x9;<path class="st4" d="M132.2,246.18c-0.15,0.23-0.3,0.46-0.45,0.69c-0.71-1.21-1.94-3.65-2.13-6.38c-0.05-0.76-0.96-1.1-1.49-0.55     l-2.8,2.94c-3.05,3.2-4.59,7.51-4.28,11.85c-0.26,0.09-0.51,0.18-0.77,0.26c-0.22-1.63-0.36-3.81,0.01-5.91     c0.06-0.34-0.35-0.56-0.59-0.31l-7.42,7.79c-0.33,0.02-0.52,0.03-0.52,0.03s0-0.18,0-0.52l7.42-7.79c0.24-0.25,0-0.65-0.33-0.57     c-2.07,0.47-4.26,0.44-5.9,0.3c0.07-0.26,0.15-0.52,0.23-0.78c4.34,0.1,8.58-1.65,11.63-4.85l2.8-2.94     c0.52-0.55,0.14-1.44-0.62-1.46c-2.73-0.07-5.23-1.17-6.47-1.82c0.22-0.17,0.44-0.33,0.67-0.49c4.15,1.9,9.12,0.95,12.32-2.41     l2.29-2.4c0.33-0.02,0.52-0.03,0.52-0.03s0,0.18,0,0.52l-2.29,2.4C130.82,237.12,130.11,242.13,132.2,246.18z"></path>
&#x9;&#x9;</g>
&#x9;&#x9;<polygon class="st12" points="106.83,268.2 107.83,264.24 111.55,265.93 109.08,262.67 112.72,260.82 108.63,260.72     109.45,256.72 106.83,259.85 104.2,256.72 105.02,260.72 100.94,260.82 104.58,262.67 102.1,265.93 105.82,264.24   "></polygon>
&#x9;</g>
&#x9;<g>
&#x9;&#x9;<g>
&#x9;&#x9;&#x9;<path class="st6" d="M232.27,230.85c0,0,11.29,0.24,18.07,7.35c6.78,7.11,6.47,18.4,6.47,18.4s-11.29-0.24-18.07-7.35     S232.27,230.85,232.27,230.85z"></path>
&#x9;&#x9;&#x9;<path class="st11" d="M232.27,230.85l24.54,25.75c0,0,0.31-11.29-6.47-18.4S232.27,230.85,232.27,230.85z"></path>
&#x9;&#x9;&#x9;<path class="st4" d="M236.37,246.18c0.15,0.23,0.3,0.46,0.45,0.69c0.71-1.21,1.94-3.65,2.13-6.38c0.05-0.76,0.96-1.1,1.49-0.55     l2.8,2.94c3.05,3.2,4.59,7.51,4.28,11.85c0.26,0.09,0.51,0.18,0.77,0.26c0.22-1.63,0.36-3.81-0.01-5.91     c-0.06-0.34,0.35-0.56,0.59-0.31l7.42,7.79c0.33,0.02,0.52,0.03,0.52,0.03s0-0.18,0-0.52l-7.42-7.79c-0.24-0.25,0-0.65,0.33-0.57     c2.07,0.47,4.26,0.44,5.9,0.3c-0.07-0.26-0.15-0.52-0.23-0.78c-4.34,0.1-8.58-1.65-11.63-4.85l-2.8-2.94     c-0.52-0.55-0.14-1.44,0.62-1.46c2.73-0.07,5.23-1.17,6.47-1.82c-0.22-0.17-0.44-0.33-0.67-0.49c-4.15,1.9-9.12,0.95-12.32-2.41     l-2.29-2.4c-0.33-0.02-0.52-0.03-0.52-0.03s0,0.18,0,0.52l2.29,2.4C237.76,237.12,238.47,242.13,236.37,246.18z"></path>
&#x9;&#x9;</g>
&#x9;&#x9;<polygon class="st12" points="261.75,268.2 260.74,264.24 257.02,265.93 259.5,262.67 255.86,260.82 259.94,260.72 259.12,256.72     261.75,259.85 264.37,256.72 263.55,260.72 267.64,260.82 264,262.67 266.47,265.93 262.75,264.24   "></polygon>
&#x9;</g>
&#x9;<circle class="st4" cx="183.77" cy="94.43" r="12.67"></circle>
&#x9;<circle class="st4" cx="183.77" cy="276.54" r="12.67"></circle>
&#x9;<circle class="st4" cx="274.82" cy="185.49" r="12.67"></circle>
&#x9;<circle class="st4" cx="92.71" cy="185.49" r="12.67"></circle>
&#x9;<path class="st12" d="M83.35,189.56h19.12v-1.73H83.35V189.56z M88.29,182.06l2.31,4l2.31-4l2.31,4l2.31-4l2.94,5.1h1.99   l-4.94-8.55l-2.31,4l-2.31-4l-2.31,4l-2.31-4l-4.94,8.55h1.99L88.29,182.06z"></path>
&#x9;<path class="st12" d="M174.21,97.05v1.73h19.12v-1.73H174.21z M180.68,93.04c1.1,0,2.17-0.32,3.09-0.92   c0.92,0.6,1.99,0.92,3.09,0.92s2.17-0.32,3.09-0.92c0.92,0.6,1.99,0.92,3.09,0.92v-1.73c-0.92,0-1.82-0.33-2.53-0.93l-0.56-0.47   l-0.56,0.47c-0.71,0.6-1.61,0.93-2.53,0.93c-0.93,0-1.82-0.33-2.53-0.93l-0.56-0.47l-0.56,0.47c-0.71,0.6-1.61,0.93-2.53,0.93   c-0.93,0-1.82-0.33-2.53-0.93l-0.56-0.47l-0.56,0.47c-0.71,0.6-1.61,0.93-2.53,0.93v1.73c1.1,0,2.17-0.32,3.09-0.92   C178.5,92.72,179.58,93.04,180.68,93.04z M180.68,96.28c1.1,0,2.17-0.32,3.09-0.92c0.92,0.6,1.99,0.92,3.09,0.92   s2.17-0.32,3.09-0.92c0.92,0.6,1.99,0.92,3.09,0.92v-1.73c-0.92,0-1.82-0.33-2.53-0.93l-0.56-0.47l-0.56,0.47   c-0.71,0.6-1.61,0.93-2.53,0.93c-0.93,0-1.82-0.33-2.53-0.93l-0.56-0.47l-0.56,0.47c-0.71,0.6-1.61,0.93-2.53,0.93   c-0.93,0-1.82-0.33-2.53-0.93l-0.56-0.47l-0.56,0.47c-0.71,0.6-1.61,0.93-2.53,0.93v1.73c1.1,0,2.17-0.32,3.09-0.92   C178.5,95.96,179.58,96.28,180.68,96.28z"></path>
&#x9;<path class="st12" d="M182.15,279.02h1.73c0-0.12,0.03-0.23,0.09-0.35c0.47-0.88,0.47-1.86,0-2.74c-0.06-0.12-0.09-0.24-0.09-0.35   c0-0.12,0.03-0.23,0.09-0.35c0.47-0.88,0.47-1.86,0-2.74c-0.06-0.12-0.09-0.23-0.09-0.35c0-0.12,0.03-0.23,0.09-0.35   c0.47-0.88,0.47-1.86,0-2.74c-0.06-0.12-0.09-0.24-0.09-0.35h-1.73c0,0.4,0.1,0.79,0.3,1.16c0.2,0.37,0.2,0.75,0,1.12   c-0.2,0.37-0.3,0.76-0.3,1.16c0,0.4,0.1,0.79,0.3,1.16c0.2,0.37,0.2,0.75,0,1.12c-0.2,0.37-0.3,0.76-0.3,1.16   c0,0.4,0.1,0.79,0.3,1.16c0.2,0.37,0.2,0.75,0,1.12C182.25,278.23,182.15,278.62,182.15,279.02z M185.39,279.02h1.73   c0-0.12,0.03-0.23,0.09-0.35c0.47-0.88,0.47-1.86,0-2.74c-0.06-0.12-0.09-0.24-0.09-0.35c0-0.12,0.03-0.23,0.09-0.35   c0.47-0.88,0.47-1.86,0-2.74c-0.06-0.12-0.09-0.23-0.09-0.35s0.03-0.23,0.09-0.35c0.47-0.88,0.47-1.86,0-2.74   c-0.06-0.12-0.09-0.24-0.09-0.35h-1.73c0,0.4,0.1,0.79,0.3,1.16c0.2,0.37,0.2,0.75,0,1.12c-0.2,0.37-0.3,0.76-0.3,1.16   c0,0.4,0.1,0.79,0.3,1.16c0.2,0.37,0.2,0.75,0,1.12c-0.2,0.37-0.3,0.76-0.3,1.16c0,0.4,0.1,0.79,0.3,1.16c0.2,0.37,0.2,0.75,0,1.12   C185.49,278.23,185.39,278.62,185.39,279.02z M178.9,279.02h1.73c0-0.12,0.03-0.23,0.09-0.35c0.47-0.88,0.47-1.86,0-2.74   c-0.06-0.12-0.09-0.23-0.09-0.35s0.03-0.23,0.09-0.35c0.47-0.88,0.47-1.86,0-2.74c-0.06-0.12-0.09-0.23-0.09-0.35   c0-0.12,0.03-0.23,0.09-0.35c0.47-0.88,0.47-1.86,0-2.74c-0.06-0.12-0.09-0.23-0.09-0.35h-1.73c0,0.4,0.1,0.79,0.3,1.16   c0.2,0.37,0.2,0.75,0,1.12c-0.2,0.37-0.3,0.76-0.3,1.16c0,0.4,0.1,0.79,0.3,1.16c0.2,0.37,0.2,0.75,0,1.12   c-0.2,0.37-0.3,0.76-0.3,1.16c0,0.4,0.1,0.79,0.3,1.16c0.2,0.37,0.2,0.75,0,1.12C179,278.23,178.9,278.62,178.9,279.02z    M176.41,280.47v1.73h13.65v-1.73H176.41z"></path>
&#x9;<path class="st12" d="M278.36,178h-4.49c-1.92,0-3.49,1.56-3.49,3.49c0,1.92,1.56,3.49,3.49,3.49h0.15c1.92,0,3.49-1.56,3.49-3.49   v-0.07h-1.73v0.07c0,0.97-0.79,1.76-1.76,1.76h-0.15c-0.97,0-1.76-0.79-1.76-1.76c0-0.97,0.79-1.76,1.76-1.76h4.49   c0.97,0,1.76,0.79,1.76,1.76v3c0,0.97-0.79,1.76-1.76,1.76H267.8v1.73h10.56c1.92,0,3.49-1.56,3.49-3.49v-3   C281.85,179.56,280.28,178,278.36,178z M267.8,190.16h13.65v-1.73H267.8V190.16z"></path>
&#x9;<g>
&#x9;&#x9;<circle class="st2" cx="110.54" cy="154.2" r="8.07"></circle>
&#x9;&#x9;<circle class="st13" cx="110.54" cy="154.2" r="4.73"></circle>
&#x9;&#x9;<circle class="st4" cx="110.54" cy="154.2" r="2.21"></circle>
&#x9;</g>
&#x9;<g>
&#x9;&#x9;<circle class="st3" cx="256.81" cy="154.2" r="8.07"></circle>
&#x9;&#x9;<circle class="st13" cx="256.81" cy="154.2" r="4.73"></circle>
&#x9;&#x9;<circle class="st4" cx="256.81" cy="154.2" r="2.21"></circle>
&#x9;</g>
&#x9;<g>
&#x9;&#x9;<circle class="st3" cx="256.81" cy="154.2" r="8.07"></circle>
&#x9;&#x9;<circle class="st13" cx="256.81" cy="154.2" r="4.73"></circle>
&#x9;&#x9;<circle class="st4" cx="256.81" cy="154.2" r="2.21"></circle>
&#x9;</g>
&#x9;<g>
&#x9;&#x9;<circle class="st2" cx="256.81" cy="214.5" r="8.07"></circle>
&#x9;&#x9;<circle class="st13" cx="256.81" cy="214.5" r="4.73"></circle>
&#x9;&#x9;<circle class="st4" cx="256.81" cy="214.5" r="2.21"></circle>
&#x9;</g>
&#x9;<g>
&#x9;&#x9;<circle class="st3" cx="111.77" cy="214.5" r="8.07"></circle>
&#x9;&#x9;<circle class="st13" cx="111.77" cy="214.5" r="4.73"></circle>
&#x9;&#x9;<circle class="st4" cx="111.77" cy="214.5" r="2.21"></circle>
&#x9;</g>
&#x9;<path class="st3" d="M183.53,175.54l-4.92,17.06c-0.52,1.81,0.83,3.61,2.71,3.61h4.42c1.88,0,3.24-1.8,2.71-3.61L183.53,175.54z"></path>
&#x9;<path class="st12" d="M202.69,154.99c0,0-8.58,9.83-19.16,9.83c-10.58,0-19.16-9.83-19.16-9.83s8.58-9.83,19.16-9.83   C194.11,145.16,202.69,154.99,202.69,154.99z"></path>
&#x9;<circle class="st2" cx="183.53" cy="154.99" r="7.8"></circle>
&#x9;<circle class="st13" cx="183.53" cy="154.99" r="5.52"></circle>
&#x9;<circle class="st0" cx="183.53" cy="154.99" r="3.58"></circle>
&#x9;<rect x="150.26" y="164.82" class="st0" width="18.68" height="4.21"></rect>
&#x9;<path class="st0" d="M166.16,175.54c-0.75,2.93-3.4,5.1-6.56,5.1s-5.81-2.17-6.56-5.1h-2.87c0.79,4.49,4.71,7.91,9.43,7.91   c4.72,0,8.64-3.42,9.43-7.91H166.16z"></path>
&#x9;<circle class="st3" cx="159.6" cy="194.95" r="6.4"></circle>
&#x9;
&#x9;&#x9;<rect x="198.12" y="164.82" transform="matrix(-1 -4.483492e-11 4.483492e-11 -1 414.9265 333.8392)" class="st0" width="18.68" height="4.21"></rect>
&#x9;
&#x9;&#x9;<rect x="174.19" y="221.02" transform="matrix(-1 -4.468882e-11 4.468882e-11 -1 367.0646 446.247)" class="st0" width="18.68" height="4.21"></rect>
&#x9;<path class="st0" d="M200.9,175.54c0.75,2.93,3.4,5.1,6.56,5.1s5.81-2.17,6.56-5.1h2.87c-0.79,4.49-4.71,7.91-9.43,7.91   c-4.72,0-8.64-3.42-9.43-7.91H200.9z"></path>
&#x9;<path class="st0" d="M174.24,203.01c1.06,4.15,4.81,7.22,9.29,7.22c4.48,0,8.23-3.07,9.29-7.22h4.06   c-1.12,6.36-6.67,11.2-13.35,11.2c-6.68,0-12.23-4.84-13.35-11.2H174.24z"></path>
&#x9;<path class="st12" d="M203.4,197.63c0,2.24,1.82,4.06,4.06,4.06s4.06-1.82,4.06-4.06c0-2.24-4.06-11.76-4.06-11.76   S203.4,195.38,203.4,197.63z"></path>
&#x9;<g>
&#x9;&#x9;<circle class="st12" cx="141.6" cy="186.93" r="1.29"></circle>
&#x9;&#x9;<circle class="st12" cx="145.85" cy="186.93" r="1.29"></circle>
&#x9;&#x9;<circle class="st12" cx="150.1" cy="186.93" r="1.29"></circle>
&#x9;&#x9;<circle class="st12" cx="143.73" cy="190.45" r="1.29"></circle>
&#x9;&#x9;<circle class="st12" cx="147.98" cy="190.45" r="1.29"></circle>
&#x9;</g>
&#x9;<g>
&#x9;&#x9;<circle class="st12" cx="215.38" cy="186.93" r="1.29"></circle>
&#x9;&#x9;<circle class="st12" cx="219.63" cy="186.93" r="1.29"></circle>
&#x9;&#x9;<circle class="st12" cx="223.87" cy="186.93" r="1.29"></circle>
&#x9;&#x9;<circle class="st12" cx="217.5" cy="190.45" r="1.29"></circle>
&#x9;&#x9;<circle class="st12" cx="221.75" cy="190.45" r="1.29"></circle>
&#x9;</g>
</g>
</svg>